<?xml version="1.0" encoding="UTF-8"?>
<svg xmlns="http://www.w3.org/2000/svg" xmlns:xlink="http://www.w3.org/1999/xlink" width="150px" height="50px" viewBox="0 0 150 50" version="1.1">
<g id="surface1">
<path style=" stroke:none;fill-rule:nonzero;fill:rgb(65.098039%,65.098039%,65.098039%);fill-opacity:1;" d="M 137.8125 0 L 9.5625 0 C 8.6875 0 7.9375 0.125 7.0625 0.25 C 6.3125 0.375 5.4375 0.625 4.6875 1 C 3.9375 1.375 3.3125 1.875 2.6875 2.5 C 2.0625 3.125 1.5625 3.75 1.1875 4.5 C 0.8125 5.25 0.5625 6.125 0.4375 6.875 C 0.3125 7.75 0.1875 8.625 0.1875 9.375 L 0.1875 40.5 C 0.1875 41.375 0.3125 42.125 0.4375 43 C 0.5625 43.875 0.8125 44.625 1.1875 45.375 C 1.5625 46.25 2.0625 46.875 2.6875 47.5 C 3.3125 48.125 3.9375 48.625 4.6875 49 C 5.4375 49.375 6.1875 49.625 7.0625 49.75 C 7.9375 49.875 8.6875 50 9.5625 50 L 140.3125 50 C 141.1875 50 141.9375 49.875 142.8125 49.75 C 143.6875 49.625 144.4375 49.375 145.1875 49 C 145.9375 48.625 146.5625 48.125 147.1875 47.5 C 147.8125 46.875 148.3125 46.25 148.6875 45.5 C 149.0625 44.75 149.3125 44 149.4375 43.125 C 149.5625 42.25 149.6875 41.5 149.6875 40.625 L 149.6875 9.375 C 149.6875 8.5 149.5625 7.75 149.4375 6.875 C 149.3125 6 149.0625 5.25 148.6875 4.5 C 147.9375 3 146.6875 1.75 145.1875 1 C 144.4375 0.625 143.6875 0.375 142.8125 0.25 C 141.9375 0.125 141.1875 0 140.3125 0 Z M 137.8125 0 "/>
<path style=" stroke:none;fill-rule:nonzero;fill:rgb(0%,0%,0%);fill-opacity:1;" d="M 10.6875 48.875 L 9.5625 48.875 C 8.8125 48.875 7.9375 48.75 7.1875 48.625 C 6.4375 48.5 5.8125 48.25 5.0625 48 C 4.4375 47.625 3.8125 47.25 3.3125 46.75 C 2.8125 46.25 2.3125 45.625 2.0625 45 C 1.6875 44.375 1.5625 43.625 1.4375 42.875 C 1.3125 42.125 1.1875 41.375 1.1875 40.5 L 1.1875 9.375 C 1.1875 8.625 1.3125 7.75 1.4375 7 C 1.5625 6.375 1.8125 5.625 2.1875 5 C 2.5625 4.375 2.9375 3.75 3.4375 3.25 C 3.9375 2.75 4.5625 2.375 5.1875 2 C 5.8125 1.625 6.5625 1.5 7.3125 1.375 C 8.0625 1.25 8.8125 1.125 9.6875 1.125 L 140.4375 1.125 C 141.1875 1.125 141.9375 1.25 142.8125 1.375 C 143.5625 1.5 144.1875 1.75 144.9375 2 C 146.1875 2.625 147.3125 3.75 147.9375 5 C 148.3125 5.625 148.4375 6.375 148.5625 7 C 148.6875 7.75 148.8125 8.625 148.8125 9.375 L 148.8125 40.5 C 148.8125 41.25 148.6875 42 148.5625 42.875 C 148.4375 43.625 148.1875 44.25 147.9375 45 C 147.5625 45.625 147.1875 46.25 146.6875 46.75 C 146.1875 47.25 145.5625 47.75 144.9375 48 C 144.3125 48.375 143.5625 48.625 142.8125 48.625 C 142.0625 48.75 141.3125 48.875 140.4375 48.875 Z M 10.6875 48.875 "/>
<path style=" stroke:none;fill-rule:nonzero;fill:rgb(100%,100%,100%);fill-opacity:1;" d="M 31.1875 25.375 C 31.1875 23.25 32.3125 21.25 34.1875 20.125 C 33.0625 18.5 31.1875 17.5 29.1875 17.375 C 27.0625 17.125 25.0625 18.625 23.9375 18.625 C 22.8125 18.625 21.1875 17.375 19.4375 17.375 C 17.0625 17.5 14.9375 18.75 13.8125 20.75 C 11.4375 24.875 13.1875 31.125 15.5625 34.5 C 16.6875 36.125 18.0625 38 19.8125 38 C 21.5625 37.875 22.1875 36.875 24.3125 36.875 C 26.4375 36.875 26.9375 38 28.8125 38 C 30.6875 38 31.8125 36.375 32.9375 34.625 C 33.8125 33.5 34.4375 32.125 34.8125 30.75 C 32.5625 30 31.1875 27.75 31.1875 25.375 Z M 27.6875 15.25 C 28.6875 14 29.1875 12.5 29.0625 10.875 C 27.5625 11 26.0625 11.75 25.0625 13 C 24.0625 14.125 23.5625 15.625 23.6875 17.25 C 25.3125 17.25 26.6875 16.5 27.6875 15.25 Z M 53.0625 33.875 L 47.1875 33.875 L 45.8125 38.125 L 43.3125 38.125 L 48.9375 22.625 L 51.4375 22.625 L 57.0625 38.125 L 54.5625 38.125 Z M 47.8125 32 L 52.5625 32 L 50.1875 25.125 L 50.0625 25.125 Z M 69.1875 32.5 C 69.1875 36 67.3125 38.25 64.4375 38.25 C 62.9375 38.375 61.5625 37.5 60.9375 36.25 L 60.9375 41.875 L 58.5625 41.875 L 58.5625 26.875 L 60.8125 26.875 L 60.8125 28.75 C 61.5625 27.5 62.9375 26.75 64.4375 26.75 C 67.1875 26.625 69.1875 29 69.1875 32.5 Z M 66.6875 32.5 C 66.6875 30.25 65.5625 28.75 63.6875 28.75 C 61.9375 28.75 60.6875 30.25 60.6875 32.5 C 60.6875 34.75 61.9375 36.25 63.6875 36.25 C 65.5625 36.25 66.6875 34.75 66.6875 32.5 Z M 81.5625 32.5 C 81.5625 36 79.6875 38.25 76.8125 38.25 C 75.3125 38.375 73.9375 37.5 73.3125 36.25 L 73.3125 41.875 L 70.9375 41.875 L 70.9375 26.875 L 73.1875 26.875 L 73.1875 28.75 C 73.9375 27.5 75.3125 26.75 76.8125 26.75 C 79.6875 26.625 81.5625 29 81.5625 32.5 Z M 79.1875 32.5 C 79.1875 30.25 78.0625 28.75 76.1875 28.75 C 74.4375 28.75 73.1875 30.25 73.1875 32.5 C 73.1875 34.75 74.4375 36.25 76.1875 36.25 C 78.0625 36.25 79.1875 34.75 79.1875 32.5 Z M 89.8125 33.75 C 89.9375 35.25 91.4375 36.25 93.5625 36.25 C 95.5625 36.25 96.9375 35.25 96.9375 33.875 C 96.9375 32.625 96.0625 32 94.0625 31.5 L 92.0625 31 C 89.1875 30.375 87.9375 29 87.9375 26.875 C 87.9375 24.25 90.3125 22.375 93.5625 22.375 C 96.8125 22.375 99.0625 24.25 99.1875 26.875 L 96.8125 26.875 C 96.6875 25.375 95.4375 24.375 93.5625 24.375 C 91.6875 24.375 90.4375 25.375 90.4375 26.75 C 90.4375 27.875 91.3125 28.5 93.3125 29 L 95.0625 29.375 C 98.1875 30.125 99.5625 31.375 99.5625 33.625 C 99.5625 36.5 97.3125 38.375 93.5625 38.375 C 90.0625 38.375 87.8125 36.625 87.6875 33.75 Z M 104.3125 24.125 L 104.3125 26.75 L 106.4375 26.75 L 106.4375 28.625 L 104.3125 28.625 L 104.3125 34.875 C 104.3125 35.875 104.6875 36.25 105.6875 36.25 L 106.4375 36.25 L 106.4375 38.125 C 106.0625 38.25 105.5625 38.25 105.1875 38.25 C 102.9375 38.25 102.0625 37.375 102.0625 35.25 L 102.0625 28.75 L 100.4375 28.75 L 100.4375 26.875 L 102.0625 26.875 L 102.0625 24.25 L 104.3125 24.25 Z M 107.8125 32.5 C 107.8125 29 109.9375 26.75 113.1875 26.75 C 116.4375 26.75 118.5625 29 118.5625 32.5 C 118.5625 36.125 116.4375 38.25 113.1875 38.25 C 109.8125 38.25 107.8125 36 107.8125 32.5 Z M 116.1875 32.5 C 116.1875 30 115.0625 28.625 113.1875 28.625 C 111.3125 28.625 110.1875 30 110.1875 32.5 C 110.1875 35 111.3125 36.375 113.1875 36.375 C 115.0625 36.375 116.1875 34.875 116.1875 32.5 Z M 120.4375 26.75 L 122.6875 26.75 L 122.6875 28.75 C 122.9375 27.5 124.1875 26.625 125.4375 26.75 C 125.6875 26.75 125.9375 26.75 126.1875 26.875 L 126.1875 29 C 125.8125 28.875 125.4375 28.875 125.1875 28.875 C 123.9375 28.875 122.8125 29.875 122.8125 31.125 L 122.8125 38.25 L 120.4375 38.25 Z M 136.9375 34.75 C 136.6875 36.75 134.6875 38.25 132.0625 38.25 C 128.8125 38.25 126.6875 36 126.6875 32.5 C 126.6875 29 128.6875 26.625 131.9375 26.625 C 135.0625 26.625 137.0625 28.75 137.0625 32.25 L 137.0625 33 L 129.0625 33 L 129.0625 33.125 C 128.9375 34.75 130.0625 36.125 131.6875 36.375 L 132.0625 36.375 C 133.1875 36.5 134.3125 35.875 134.6875 34.75 Z M 129.0625 31.375 L 134.6875 31.375 C 134.8125 29.875 133.5625 28.625 132.0625 28.5 L 131.8125 28.5 C 130.3125 28.5 129.0625 29.75 129.0625 31.375 Z M 129.0625 31.375 "/>
<path style=" stroke:none;fill-rule:nonzero;fill:rgb(100%,100%,100%);fill-opacity:1;" d="M 47.4375 10.875 C 49.3125 10.75 50.8125 12.125 50.9375 13.875 L 50.9375 14.5 C 50.9375 16.875 49.6875 18.25 47.4375 18.25 L 44.6875 18.25 L 44.6875 10.75 Z M 45.9375 17.375 L 47.3125 17.375 C 48.5625 17.5 49.6875 16.5 49.8125 15.125 L 49.8125 14.625 C 49.9375 13.375 49.0625 12.125 47.8125 12 L 45.9375 12 Z M 52.3125 15.5 C 52.1875 14 53.3125 12.75 54.6875 12.625 C 56.1875 12.5 57.4375 13.625 57.5625 15 L 57.5625 15.5 C 57.6875 17 56.6875 18.25 55.1875 18.375 C 53.6875 18.5 52.4375 17.5 52.3125 16 Z M 56.4375 15.5 C 56.4375 14.25 55.9375 13.625 54.9375 13.625 C 53.9375 13.625 53.4375 14.375 53.4375 15.5 C 53.4375 16.75 53.9375 17.5 54.9375 17.5 C 55.9375 17.5 56.4375 16.75 56.4375 15.5 Z M 64.6875 18.375 L 63.5625 18.375 L 62.4375 14.25 L 62.3125 14.25 L 61.1875 18.375 L 60.0625 18.375 L 58.5625 12.75 L 59.6875 12.75 L 60.6875 17 L 60.8125 17 L 61.9375 12.75 L 63.0625 12.75 L 64.1875 17 L 64.3125 17 L 65.3125 12.75 L 66.4375 12.75 Z M 67.5625 12.75 L 68.6875 12.75 L 68.6875 13.625 L 68.8125 13.625 C 69.0625 13 69.8125 12.625 70.4375 12.625 C 71.4375 12.5 72.3125 13.25 72.4375 14.375 L 72.4375 18.375 L 71.3125 18.375 L 71.3125 15 C 71.3125 14.125 70.9375 13.625 70.0625 13.625 C 69.3125 13.625 68.6875 14.125 68.6875 14.875 L 68.6875 18.375 L 67.5625 18.375 Z M 74.0625 10.5 L 75.1875 10.5 L 75.1875 18.375 L 74.0625 18.375 Z M 76.6875 15.5 C 76.5625 14 77.5625 12.75 79.0625 12.625 C 80.5625 12.5 81.8125 13.5 81.9375 15 L 81.9375 15.5 C 82.0625 17 81.0625 18.25 79.5625 18.375 C 78.0625 18.5 76.8125 17.5 76.6875 16 Z M 80.9375 15.5 C 80.9375 14.25 80.4375 13.625 79.4375 13.625 C 78.4375 13.625 77.9375 14.375 77.9375 15.5 C 77.9375 16.75 78.4375 17.5 79.4375 17.5 C 80.3125 17.5 80.9375 16.75 80.9375 15.5 Z M 83.1875 16.75 C 83.1875 15.75 83.9375 15.125 85.3125 15.125 L 86.8125 15 L 86.8125 14.5 C 86.8125 13.875 86.4375 13.625 85.6875 13.625 C 85.0625 13.625 84.6875 13.875 84.5625 14.25 L 83.4375 14.25 C 83.5625 13.25 84.4375 12.625 85.6875 12.625 C 87.0625 12.625 87.9375 13.375 87.9375 14.5 L 87.9375 18.375 L 86.8125 18.375 L 86.8125 17.625 L 86.6875 17.625 C 86.3125 18.25 85.6875 18.5 84.9375 18.5 C 84.0625 18.625 83.1875 17.875 83.0625 17 C 83.1875 16.875 83.1875 16.875 83.1875 16.75 Z M 86.8125 16.25 L 86.8125 15.75 L 85.4375 15.875 C 84.6875 15.875 84.3125 16.25 84.3125 16.625 C 84.3125 17.125 84.8125 17.375 85.3125 17.375 C 86.0625 17.625 86.6875 17.125 86.8125 16.25 C 86.8125 16.375 86.8125 16.375 86.8125 16.25 Z M 89.3125 15.5 C 89.3125 13.75 90.1875 12.625 91.6875 12.625 C 92.4375 12.625 93.0625 13 93.4375 13.625 L 93.5625 13.625 L 93.5625 10.5 L 94.6875 10.5 L 94.6875 18.375 L 93.5625 18.375 L 93.5625 17.5 L 93.4375 17.5 C 93.0625 18.125 92.4375 18.5 91.6875 18.5 C 90.3125 18.5 89.3125 17.375 89.3125 15.5 Z M 90.5625 15.5 C 90.5625 16.75 91.0625 17.375 92.0625 17.375 C 93.0625 17.375 93.5625 16.625 93.5625 15.5 C 93.5625 14.375 92.9375 13.625 92.0625 13.625 C 91.0625 13.625 90.5625 14.375 90.5625 15.5 Z M 99.1875 15.5 C 99.0625 14 100.0625 12.75 101.5625 12.625 C 103.0625 12.5 104.3125 13.5 104.4375 15 L 104.4375 15.5 C 104.5625 17 103.5625 18.25 102.0625 18.375 C 100.5625 18.5 99.3125 17.5 99.1875 16 Z M 103.4375 15.5 C 103.4375 14.25 102.9375 13.625 101.9375 13.625 C 100.9375 13.625 100.4375 14.375 100.4375 15.5 C 100.4375 16.75 100.9375 17.5 101.9375 17.5 C 102.8125 17.5 103.4375 16.75 103.4375 15.5 Z M 106.0625 12.75 L 107.1875 12.75 L 107.1875 13.625 L 107.3125 13.625 C 107.5625 13 108.3125 12.625 108.9375 12.625 C 109.9375 12.5 110.8125 13.25 110.9375 14.375 L 110.9375 18.375 L 109.8125 18.375 L 109.8125 15 C 109.8125 14.125 109.4375 13.625 108.5625 13.625 C 107.8125 13.625 107.1875 14.125 107.1875 14.875 L 107.1875 18.375 L 106.0625 18.375 Z M 117.0625 11.375 L 117.0625 12.75 L 118.3125 12.75 L 118.3125 13.75 L 117.0625 13.75 L 117.0625 16.625 C 117.0625 17.25 117.3125 17.5 117.8125 17.5 L 118.1875 17.5 L 118.1875 18.375 L 117.5625 18.375 C 116.3125 18.375 115.8125 18 115.8125 16.875 L 115.8125 13.75 L 114.9375 13.75 L 114.9375 12.875 L 115.8125 12.875 L 115.8125 11.375 Z M 119.8125 10.5 L 120.9375 10.5 L 120.9375 13.625 L 121.0625 13.625 C 121.3125 13 122.0625 12.5 122.8125 12.625 C 123.8125 12.625 124.6875 13.375 124.8125 14.375 L 124.8125 18.375 L 123.6875 18.375 L 123.6875 15 C 123.6875 14.125 123.3125 13.625 122.4375 13.625 C 121.6875 13.625 121.0625 14.125 121.0625 14.875 L 121.0625 18.375 L 119.9375 18.375 L 119.9375 10.5 Z M 131.1875 16.875 C 130.9375 17.875 129.8125 18.625 128.8125 18.5 C 127.4375 18.5 126.1875 17.375 126.1875 16 L 126.1875 15.625 C 125.9375 14.25 126.9375 12.875 128.4375 12.75 L 128.8125 12.75 C 130.4375 12.75 131.3125 13.875 131.3125 15.625 L 131.3125 16 L 127.3125 16 L 127.3125 16.125 C 127.1875 17 127.8125 17.625 128.6875 17.75 L 128.8125 17.75 C 129.3125 17.875 129.9375 17.5 130.1875 17.125 L 131.1875 17.125 Z M 127.1875 15 L 130.0625 15 C 130.0625 14.25 129.5625 13.625 128.8125 13.5 L 128.6875 13.5 C 127.9375 13.625 127.1875 14.25 127.1875 15 Z M 127.1875 15 "/>
</g>
</svg>
