<?xml version="1.0" encoding="UTF-8"?>
<svg xmlns="http://www.w3.org/2000/svg" xmlns:xlink="http://www.w3.org/1999/xlink" width="169px" height="50px" viewBox="0 0 168 50" version="1.1">
<defs>
<linearGradient id="linear0" gradientUnits="userSpaceOnUse" x1="21.795" y1="-152.295" x2="5.012" y2="-135.513" gradientTransform="matrix(1.244444,0,0,1.25,0,201.25)">
<stop offset="0" style="stop-color:rgb(0%,62.745098%,100%);stop-opacity:1;"/>
<stop offset="0.007" style="stop-color:rgb(0%,63.137255%,100%);stop-opacity:1;"/>
<stop offset="0.26" style="stop-color:rgb(0%,74.509804%,100%);stop-opacity:1;"/>
<stop offset="0.512" style="stop-color:rgb(0%,82.352941%,100%);stop-opacity:1;"/>
<stop offset="0.76" style="stop-color:rgb(0%,87.45098%,100%);stop-opacity:1;"/>
<stop offset="1" style="stop-color:rgb(0%,89.019608%,100%);stop-opacity:1;"/>
</linearGradient>
<linearGradient id="linear1" gradientUnits="userSpaceOnUse" x1="33.834" y1="-140.95" x2="9.637" y2="-140.95" gradientTransform="matrix(1.244444,0,0,1.25,0,201.25)">
<stop offset="0" style="stop-color:rgb(100%,87.843137%,0%);stop-opacity:1;"/>
<stop offset="0.409" style="stop-color:rgb(100%,74.117647%,0%);stop-opacity:1;"/>
<stop offset="0.775" style="stop-color:rgb(100%,64.705882%,0%);stop-opacity:1;"/>
<stop offset="1" style="stop-color:rgb(100%,61.176471%,0%);stop-opacity:1;"/>
</linearGradient>
<linearGradient id="linear2" gradientUnits="userSpaceOnUse" x1="24.816" y1="-138.715" x2="2.058" y2="-115.957" gradientTransform="matrix(1.244444,0,0,1.25,0,201.25)">
<stop offset="0" style="stop-color:rgb(100%,22.745098%,26.666667%);stop-opacity:1;"/>
<stop offset="1" style="stop-color:rgb(76.470588%,6.666667%,38.431373%);stop-opacity:1;"/>
</linearGradient>
<linearGradient id="linear3" gradientUnits="userSpaceOnUse" x1="7.261" y1="-160.788" x2="17.424" y2="-150.625" gradientTransform="matrix(1.244444,0,0,1.25,0,201.25)">
<stop offset="0" style="stop-color:rgb(19.607843%,62.745098%,44.313725%);stop-opacity:1;"/>
<stop offset="0.069" style="stop-color:rgb(17.647059%,65.490196%,44.313725%);stop-opacity:1;"/>
<stop offset="0.476" style="stop-color:rgb(8.235294%,81.176471%,45.490196%);stop-opacity:1;"/>
<stop offset="0.801" style="stop-color:rgb(2.352941%,90.588235%,45.882353%);stop-opacity:1;"/>
<stop offset="1" style="stop-color:rgb(0%,94.117647%,46.27451%);stop-opacity:1;"/>
</linearGradient>
<filter id="alpha" filterUnits="objectBoundingBox" x="0%" y="0%" width="100%" height="100%">
  <feColorMatrix type="matrix" in="SourceGraphic" values="0 0 0 0 1 0 0 0 0 1 0 0 0 0 1 0 0 0 1 0"/>
</filter>
<mask id="mask0">
  <g filter="url(#alpha)">
<rect x="0" y="0" width="168" height="50" style="fill:rgb(0%,0%,0%);fill-opacity:0.2;stroke:none;"/>
  </g>
</mask>
<clipPath id="clip1">
  <rect x="0" y="0" width="168" height="50"/>
</clipPath>
<g id="surface5" clip-path="url(#clip1)">
<path style=" stroke:none;fill-rule:nonzero;fill:rgb(0%,0%,0%);fill-opacity:1;" d="M 33.601562 30.125 L 15.554688 40.375 C 14.558594 41 13.6875 40.875 13.066406 40.375 L 12.941406 40.5 L 13.066406 40.625 C 13.6875 41.125 14.558594 41.25 15.554688 40.625 Z M 33.601562 30.125 "/>
</g>
<mask id="mask1">
  <g filter="url(#alpha)">
<rect x="0" y="0" width="168" height="50" style="fill:rgb(0%,0%,0%);fill-opacity:0.121569;stroke:none;"/>
  </g>
</mask>
<clipPath id="clip2">
  <rect x="0" y="0" width="168" height="50"/>
</clipPath>
<g id="surface8" clip-path="url(#clip2)">
<path style=" stroke:none;fill-rule:nonzero;fill:rgb(0%,0%,0%);fill-opacity:1;" d="M 12.941406 40.375 C 12.570312 40 12.445312 39.375 12.445312 38.625 L 12.445312 38.75 C 12.445312 39.5 12.691406 40.125 13.066406 40.5 L 13.066406 40.375 Z M 39.820312 26.625 L 33.601562 30.125 L 33.722656 30.25 L 39.820312 26.75 C 40.691406 26.25 41.066406 25.625 41.066406 25 C 41.066406 25.625 40.570312 26.125 39.820312 26.625 Z M 39.820312 26.625 "/>
</g>
<mask id="mask2">
  <g filter="url(#alpha)">
<rect x="0" y="0" width="168" height="50" style="fill:rgb(0%,0%,0%);fill-opacity:0.25098;stroke:none;"/>
  </g>
</mask>
<clipPath id="clip3">
  <rect x="0" y="0" width="168" height="50"/>
</clipPath>
<g id="surface11" clip-path="url(#clip3)">
<path style=" stroke:none;fill-rule:nonzero;fill:rgb(100%,100%,100%);fill-opacity:1;" d="M 15.554688 9.5 L 39.820312 23.375 C 40.570312 23.875 41.066406 24.375 41.066406 25 C 41.066406 24.375 40.691406 23.75 39.820312 23.25 L 15.554688 9.5 C 13.8125 8.375 12.445312 9.125 12.445312 11.125 L 12.445312 11.25 C 12.445312 9.375 13.8125 8.5 15.554688 9.5 Z M 15.554688 9.5 "/>
</g>
</defs>
<g id="surface1">
<path style=" stroke:none;fill-rule:nonzero;fill:rgb(0%,0%,0%);fill-opacity:1;" d="M 161.777344 50 L 6.222656 50 C 2.738281 50 0 47.25 0 43.75 L 0 6.25 C 0 2.75 2.738281 0 6.222656 0 L 161.777344 0 C 165.261719 0 168 2.75 168 6.25 L 168 43.75 C 168 47.25 165.261719 50 161.777344 50 Z M 161.777344 50 "/>
<path style=" stroke:none;fill-rule:nonzero;fill:rgb(65.098039%,65.098039%,65.098039%);fill-opacity:1;" d="M 161.777344 1 C 164.640625 1 167.003906 3.375 167.003906 6.25 L 167.003906 43.75 C 167.003906 46.625 164.640625 49 161.777344 49 L 6.222656 49 C 3.359375 49 0.996094 46.625 0.996094 43.75 L 0.996094 6.25 C 0.996094 3.375 3.359375 1 6.222656 1 L 161.777344 1 M 161.777344 0 L 6.222656 0 C 2.738281 0 0 2.875 0 6.25 L 0 43.75 C 0 47.25 2.738281 50 6.222656 50 L 161.777344 50 C 165.261719 50 168 47.25 168 43.75 L 168 6.25 C 168 2.875 165.261719 0 161.777344 0 Z M 161.777344 0 "/>
<path style="fill-rule:nonzero;fill:rgb(100%,100%,100%);fill-opacity:1;stroke-width:0.2;stroke-linecap:butt;stroke-linejoin:miter;stroke:rgb(100%,100%,100%);stroke-opacity:1;stroke-miterlimit:10;" d="M 47.401297 10.2 C 47.401297 11 47.200405 11.7 46.701311 12.2 C 46.098633 12.8 45.398647 13.1 44.500907 13.1 C 43.600028 13.1 42.900042 12.8 42.300502 12.2 C 41.700963 11.6 41.399623 10.9 41.399623 10 C 41.399623 9.1 41.700963 8.4 42.300502 7.8 C 42.900042 7.2 43.600028 6.9 44.500907 6.9 C 44.899554 6.9 45.301339 7 45.699986 7.2 C 46.098633 7.4 46.399972 7.6 46.600865 7.9 L 46.098633 8.4 C 45.699986 7.9 45.200893 7.7 44.500907 7.7 C 43.901367 7.7 43.298689 7.9 42.900042 8.4 C 42.400949 8.8 42.200056 9.4 42.200056 10.1 C 42.200056 10.8 42.400949 11.4 42.900042 11.8 C 43.399135 12.2 43.901367 12.5 44.500907 12.5 C 45.200893 12.5 45.699986 12.3 46.199079 11.8 C 46.500419 11.5 46.701311 11.1 46.701311 10.6 L 44.500907 10.6 L 44.500907 9.8 L 47.401297 9.8 Z M 51.99986 7.7 L 49.300363 7.7 L 49.300363 9.6 L 51.798968 9.6 L 51.798968 10.3 L 49.300363 10.3 L 49.300363 12.2 L 51.99986 12.2 L 51.99986 13 L 48.49993 13 L 48.49993 7 L 51.99986 7 Z M 55.298898 13 L 54.498465 13 L 54.498465 7.7 L 52.800293 7.7 L 52.800293 7 L 57.000209 7 L 57.000209 7.7 L 55.298898 7.7 Z M 59.9006 13 L 59.9006 7 L 60.701032 7 L 60.701032 13 Z M 64.100516 13 L 63.300084 13 L 63.300084 7.7 L 61.598772 7.7 L 61.598772 7 L 65.701381 7 L 65.701381 7.7 L 64.00007 7.7 Z M 73.598982 12.2 C 72.999442 12.8 72.299456 13.1 71.398577 13.1 C 70.500837 13.1 69.800851 12.8 69.201311 12.2 C 68.598633 11.6 68.300432 10.9 68.300432 10 C 68.300432 9.1 68.598633 8.4 69.201311 7.8 C 69.800851 7.2 70.500837 6.9 71.398577 6.9 C 72.299456 6.9 72.999442 7.2 73.598982 7.8 C 74.198521 8.4 74.49986 9.1 74.49986 10 C 74.49986 10.9 74.198521 11.6 73.598982 12.2 Z M 69.800851 11.7 C 70.199498 12.1 70.799037 12.4 71.398577 12.4 C 72.001256 12.4 72.600795 12.2 72.999442 11.7 C 73.401228 11.3 73.699428 10.7 73.699428 10 C 73.699428 9.3 73.498535 8.7 72.999442 8.3 C 72.600795 7.9 72.001256 7.6 71.398577 7.6 C 70.799037 7.6 70.199498 7.8 69.800851 8.3 C 69.399065 8.7 69.100865 9.3 69.100865 10 C 69.100865 10.7 69.298619 11.3 69.800851 11.7 Z M 75.598493 13 L 75.598493 7 L 76.499372 7 L 79.399763 11.7 L 79.399763 7 L 80.200195 7 L 80.200195 13 L 79.399763 13 L 76.298479 8.1 L 76.298479 13 Z M 75.598493 13 " transform="matrix(1.244444,0,0,1.25,0,0)"/>
<path style=" stroke:none;fill-rule:nonzero;fill:rgb(100%,100%,100%);fill-opacity:1;" d="M 84.746094 27.25 C 81.761719 27.25 79.394531 29.5 79.394531 32.625 C 79.394531 35.625 81.761719 38 84.746094 38 C 87.734375 38 90.097656 35.75 90.097656 32.625 C 90.097656 29.375 87.734375 27.25 84.746094 27.25 Z M 84.746094 35.75 C 83.128906 35.75 81.761719 34.375 81.761719 32.5 C 81.761719 30.625 83.128906 29.25 84.746094 29.25 C 86.363281 29.25 87.734375 30.5 87.734375 32.5 C 87.734375 34.375 86.363281 35.75 84.746094 35.75 Z M 73.171875 27.25 C 70.1875 27.25 67.820312 29.5 67.820312 32.625 C 67.820312 35.625 70.1875 38 73.171875 38 C 76.160156 38 78.523438 35.75 78.523438 32.625 C 78.523438 29.375 76.160156 27.25 73.171875 27.25 Z M 73.171875 35.75 C 71.554688 35.75 70.1875 34.375 70.1875 32.5 C 70.1875 30.625 71.554688 29.25 73.171875 29.25 C 74.792969 29.25 76.160156 30.5 76.160156 32.5 C 76.160156 34.375 74.792969 35.75 73.171875 35.75 Z M 59.359375 28.875 L 59.359375 31.125 L 64.710938 31.125 C 64.585938 32.375 64.089844 33.375 63.464844 34 C 62.71875 34.75 61.476562 35.625 59.359375 35.625 C 56 35.625 53.511719 33 53.511719 29.625 C 53.511719 26.25 56.125 23.625 59.359375 23.625 C 61.101562 23.625 62.472656 24.375 63.464844 25.25 L 65.085938 23.625 C 63.714844 22.375 61.972656 21.375 59.484375 21.375 C 55.003906 21.375 51.148438 25.125 51.148438 29.625 C 51.148438 34.125 55.003906 37.875 59.484375 37.875 C 61.972656 37.875 63.714844 37.125 65.207031 35.5 C 66.703125 34 67.199219 31.875 67.199219 30.25 C 67.199219 29.75 67.199219 29.25 67.074219 28.875 Z M 115.859375 30.625 C 115.359375 29.375 114.117188 27.25 111.378906 27.25 C 108.640625 27.25 106.398438 29.375 106.398438 32.625 C 106.398438 35.625 108.640625 38 111.625 38 C 113.992188 38 115.484375 36.5 115.980469 35.625 L 114.238281 34.375 C 113.617188 35.25 112.871094 35.875 111.625 35.875 C 110.382812 35.875 109.636719 35.375 109.011719 34.25 L 116.105469 31.25 Z M 108.640625 32.375 C 108.640625 30.375 110.257812 29.25 111.378906 29.25 C 112.25 29.25 113.121094 29.75 113.367188 30.375 Z M 102.792969 37.5 L 105.15625 37.5 L 105.15625 21.875 L 102.792969 21.875 Z M 99.058594 28.375 C 98.4375 27.75 97.441406 27.125 96.195312 27.125 C 93.582031 27.125 91.09375 29.5 91.09375 32.5 C 91.09375 35.5 93.457031 37.75 96.195312 37.75 C 97.441406 37.75 98.4375 37.125 98.933594 36.5 L 99.058594 36.5 L 99.058594 37.25 C 99.058594 39.25 97.9375 40.375 96.195312 40.375 C 94.828125 40.375 93.832031 39.375 93.582031 38.5 L 91.589844 39.375 C 92.214844 40.75 93.707031 42.5 96.320312 42.5 C 99.058594 42.5 101.296875 40.875 101.296875 37 L 101.296875 27.5 L 99.058594 27.5 Z M 96.320312 35.75 C 94.703125 35.75 93.332031 34.375 93.332031 32.5 C 93.332031 30.625 94.703125 29.25 96.320312 29.25 C 97.9375 29.25 99.183594 30.625 99.183594 32.5 C 99.183594 34.375 97.9375 35.75 96.320312 35.75 Z M 126.683594 21.875 L 121.085938 21.875 L 121.085938 37.5 L 123.449219 37.5 L 123.449219 31.625 L 126.683594 31.625 C 129.296875 31.625 131.785156 29.75 131.785156 26.75 C 131.785156 23.75 129.296875 21.875 126.683594 21.875 Z M 126.808594 29.375 L 123.449219 29.375 L 123.449219 24 L 126.808594 24 C 128.550781 24 129.546875 25.5 129.546875 26.625 C 129.421875 28 128.425781 29.375 126.808594 29.375 Z M 141.121094 27.125 C 139.378906 27.125 137.636719 27.875 137.011719 29.5 L 139.128906 30.375 C 139.625 29.5 140.375 29.25 141.246094 29.25 C 142.488281 29.25 143.609375 30 143.734375 31.25 L 143.734375 31.375 C 143.359375 31.125 142.363281 30.75 141.367188 30.75 C 139.128906 30.75 136.890625 32 136.890625 34.25 C 136.890625 36.375 138.753906 37.75 140.746094 37.75 C 142.363281 37.75 143.109375 37 143.734375 36.25 L 143.859375 36.25 L 143.859375 37.5 L 146.097656 37.5 L 146.097656 31.5 C 145.847656 28.75 143.734375 27.125 141.121094 27.125 Z M 140.871094 35.75 C 140.125 35.75 139.003906 35.375 139.003906 34.375 C 139.003906 33.125 140.375 32.75 141.492188 32.75 C 142.488281 32.75 142.988281 33 143.609375 33.25 C 143.359375 34.75 142.117188 35.75 140.871094 35.75 Z M 153.9375 27.5 L 151.324219 34.25 L 151.199219 34.25 L 148.460938 27.5 L 145.972656 27.5 L 150.078125 37 L 147.714844 42.25 L 150.078125 42.25 L 156.425781 27.5 Z M 133.03125 37.5 L 135.394531 37.5 L 135.394531 21.875 L 133.03125 21.875 Z M 133.03125 37.5 "/>
<path style=" stroke:none;fill-rule:nonzero;fill:url(#linear0);" d="M 12.941406 9.375 C 12.570312 9.75 12.445312 10.375 12.445312 11.125 L 12.445312 38.75 C 12.445312 39.5 12.691406 40.125 13.066406 40.5 L 13.191406 40.625 L 28.621094 25.125 L 28.621094 24.875 Z M 12.941406 9.375 "/>
<path style=" stroke:none;fill-rule:nonzero;fill:url(#linear1);" d="M 33.601562 30.375 L 28.496094 25.25 L 28.496094 24.875 L 33.601562 19.75 L 33.722656 19.875 L 39.820312 23.375 C 41.5625 24.375 41.5625 26 39.820312 27 Z M 33.601562 30.375 "/>
<path style=" stroke:none;fill-rule:nonzero;fill:url(#linear2);" d="M 33.722656 30.25 L 28.496094 25 L 12.941406 40.625 C 13.5625 41.25 14.4375 41.25 15.554688 40.75 L 33.722656 30.25 "/>
<path style=" stroke:none;fill-rule:nonzero;fill:url(#linear3);" d="M 33.722656 19.75 L 15.554688 9.375 C 14.4375 8.75 13.5625 8.875 12.941406 9.5 L 28.496094 25 Z M 33.722656 19.75 "/>
<use xlink:href="#surface5" mask="url(#mask0)"/>
<use xlink:href="#surface8" mask="url(#mask1)"/>
<use xlink:href="#surface11" mask="url(#mask2)"/>
</g>
</svg>
